<svg width="82" height="16" viewBox="0 0 82 16" fill="none" xmlns="http://www.w3.org/2000/svg">
<path d="M14 10.5C14 10.9688 13.7812 11.3438 13.5 11.625V14.1562C13.7812 14.3438 14 14.6562 14 15C14 15.5625 13.5312 16 13 16H3C1.3125 16 0 14.6875 0 13V3C0 1.34375 1.3125 0 3 0H6V6C6 6.4375 6.46875 6.65625 6.78125 6.40625L8.5 5L10.1875 6.375C10.5 6.625 11 6.40625 11 6V0H12.5C13.3125 0 14 0.6875 14 1.5V10.5ZM12 14V12H3C2.4375 12 2 12.4688 2 13C2 13.5625 2.4375 14 3 14H12Z" fill="#080808" fill-opacity="0.25"/>

</svg>
