<svg width="85" height="16" viewBox="0 0 85 16" fill="none" xmlns="http://www.w3.org/2000/svg">
<path d="M18.875 2.59375C18.875 2.6875 19.4688 5.25 17.75 7.6875C16.5625 9.4375 14.5938 10.6562 11.875 11.375C11.3125 11.5312 10.9062 12.0625 10.9062 12.6562C10.9062 13.4062 11.5 14 12.25 14H12.4062C13.2188 14 13.9062 14.6875 13.9062 15.5C13.9062 15.7812 13.7188 16 13.4375 16H6.46875C6.21875 16 6 15.7812 6 15.5C6 14.6875 6.65625 14 7.5 14H7.625C8.375 14 9 13.4062 8.96875 12.6562C8.96875 12.0625 8.59375 11.5312 8 11.375C5.28125 10.6562 3.3125 9.4375 2.15625 7.6875C0.5 5.25 1.09375 2.6875 1.09375 2.59375C1.1875 2.25 1.5 2 1.84375 2H5C4.96875 1.625 4.96875 1.28125 5 0.96875C5 0.4375 5.4375 0 6 0H13.9688C14.5312 0 14.9688 0.4375 14.9688 0.96875C15 1.28125 15 1.625 14.9688 2H18.125C18.4688 2 18.7812 2.25 18.875 2.59375ZM3.40625 6.875C4.125 7.96875 5.28125 8.8125 6.8125 9.4375C5.65625 7.625 5.1875 5.375 5 3.5H2.5C2.46875 4.25 2.53125 5.59375 3.40625 6.875ZM16.5625 6.875C17.4375 5.59375 17.5 4.25 17.4688 3.5H14.9688C14.7812 5.375 14.3125 7.625 13.1562 9.4375C14.6875 8.8125 15.8438 7.96875 16.5625 6.875Z" fill="#080808" fill-opacity="0.25"/>

</svg>
