<svg width="55" height="55" viewBox="0 0 55 55" fill="none" xmlns="http://www.w3.org/2000/svg">
<circle cx="27.5" cy="27.5" r="27.5" fill="#6132EC" fill-opacity="0.49"/>
<g clip-path="url(#clip0_10_1219)">
<g clip-path="url(#clip1_10_1219)">
<path d="M36 34V35C36 36.1 35.1 37 34 37H20C18.89 37 18 36.1 18 35V21C18 19.9 18.89 19 20 19H34C35.1 19 36 19.9 36 21V22H27C25.89 22 25 22.9 25 24V32C25 33.1 25.89 34 27 34H36ZM27 32H37V24H27V32ZM31 29.5C30.17 29.5 29.5 28.83 29.5 28C29.5 27.17 30.17 26.5 31 26.5C31.83 26.5 32.5 27.17 32.5 28C32.5 28.83 31.83 29.5 31 29.5Z" fill="white"/>
</g>
</g>
<defs>
<clipPath id="clip0_10_1219">
<rect width="30" height="30" fill="white" transform="translate(12 13)"/>
</clipPath>
<clipPath id="clip1_10_1219">
<rect width="24" height="24" fill="white" transform="translate(15 16)"/>
</clipPath>
</defs>
</svg>
