<svg width="55" height="55" viewBox="0 0 55 55" fill="none" xmlns="http://www.w3.org/2000/svg">
<circle cx="27.5" cy="27.5" r="27.5" fill="#6132EC" fill-opacity="0.49"/>
<g clip-path="url(#clip0_10_1251)">
<g clip-path="url(#clip1_10_1251)">
<path d="M26.8 26.9C24.53 26.31 23.8 25.7 23.8 24.75C23.8 23.66 24.81 22.9 26.5 22.9C28.28 22.9 28.94 23.75 29 25H31.21C31.14 23.28 30.09 21.7 28 21.19V19H25V21.16C23.06 21.58 21.5 22.84 21.5 24.77C21.5 27.08 23.41 28.23 26.2 28.9C28.7 29.5 29.2 30.38 29.2 31.31C29.2 32 28.71 33.1 26.5 33.1C24.44 33.1 23.63 32.18 23.52 31H21.32C21.44 33.19 23.08 34.42 25 34.83V37H28V34.85C29.95 34.48 31.5 33.35 31.5 31.3C31.5 28.46 29.07 27.49 26.8 26.9Z" fill="white"/>
</g>
</g>
<defs>
<clipPath id="clip0_10_1251">
<rect width="30" height="30" fill="white" transform="translate(12 13)"/>
</clipPath>
<clipPath id="clip1_10_1251">
<rect width="24" height="24" fill="white" transform="translate(15 16)"/>
</clipPath>
</defs>
</svg>
