<svg width="51" height="55" viewBox="0 0 51 55" fill="none" xmlns="http://www.w3.org/2000/svg">
<circle cx="27.5" cy="27.5" r="27.5" fill="#6132EC" fill-opacity="0.49"/>
<g clip-path="url(#clip0_10_1262)">
<g clip-path="url(#clip1_10_1262)">
<path d="M26.5 18C21.81 18 18 21.81 18 26.5C18 31.19 21.81 35 26.5 35H27V38C31.86 35.66 35 31 35 26.5C35 21.81 31.19 18 26.5 18ZM27.5 32.5H25.5V30.5H27.5V32.5ZM27.5 29H25.5C25.5 25.75 28.5 26 28.5 24C28.5 22.9 27.6 22 26.5 22C25.4 22 24.5 22.9 24.5 24H22.5C22.5 21.79 24.29 20 26.5 20C28.71 20 30.5 21.79 30.5 24C30.5 26.5 27.5 26.75 27.5 29Z" fill="white"/>
</g>
</g>
<defs>
<clipPath id="clip0_10_1262">
<rect width="30" height="30" fill="white" transform="translate(12 13)"/>
</clipPath>
<clipPath id="clip1_10_1262">
<rect width="24" height="24" fill="white" transform="translate(15 16)"/>
</clipPath>
</defs>
</svg>
