<svg width="132" height="39" viewBox="0 0 132 39" fill="none" xmlns="http://www.w3.org/2000/svg">
<path d="M92.6831 6.00048C94.3658 6.00048 95.6816 6.98654 95.6816 8.24856C95.6816 9.31538 94.7393 10.1769 93.4336 10.4226V11.2505C93.4336 11.6611 93.097 11.9976 92.6831 11.9976C92.2691 11.9976 91.9326 11.6611 91.9326 11.2505V10.4226C90.6268 10.1769 89.6812 9.31538 89.6812 8.24856C89.6812 7.83462 90.0211 7.49808 90.4316 7.49808C90.8456 7.49808 91.1821 7.83462 91.1821 8.24856C91.1821 8.55481 91.7677 8.99904 92.6831 8.99904C93.5951 8.99904 94.184 8.55481 94.184 8.24856C94.184 7.94567 93.5951 7.49808 92.6831 7.49808C91.0004 7.49808 89.6812 6.51202 89.6812 5.25C89.6812 4.18317 90.6268 3.32163 91.9326 3.07596V2.24808C91.9326 1.8375 92.2691 1.4976 92.6831 1.4976C93.097 1.4976 93.4336 1.8375 93.4336 2.24808V3.07596C94.7393 3.32163 95.6816 4.18317 95.6816 5.25C95.6816 5.66058 95.3451 6.00048 94.9312 6.00048C94.5206 6.00048 94.184 5.66058 94.184 5.25C94.184 4.94375 93.5951 4.49952 92.6831 4.49952C91.7677 4.49952 91.1821 4.94375 91.1821 5.25C91.1821 5.55288 91.7677 6.00048 92.6831 6.00048ZM92.6831 0C88.961 0 85.9321 3.02885 85.9321 6.7476C85.9321 10.4697 88.961 13.4986 92.6831 13.4986C96.4052 13.4986 99.434 10.4697 99.434 6.7476C99.434 3.02885 96.4052 0 92.6831 0Z" fill="#6132EC"/>
<mask id="mask0_118_1307" style="mask-type:luminance" maskUnits="userSpaceOnUse" x="82" y="1" width="22" height="21">
<path d="M82.6611 1.32935H103.338V21.2693H82.6611V1.32935Z" fill="white"/>
</mask>
<g mask="url(#mask0_118_1307)">
<path d="M92.7544 14.7707C88.2044 14.7707 84.5025 11.0688 84.5025 6.51881C84.5025 1.96881 88.2044 -1.72975 92.7544 -1.72975C97.3044 -1.72975 101.003 1.96881 101.003 6.51881C101.003 11.0688 97.3044 14.7707 92.7544 14.7707ZM92.7544 -3.23071C87.3765 -3.23071 83.0049 1.14429 83.0049 6.51881C83.0049 11.8967 87.3765 16.2717 92.7544 16.2717C98.1289 16.2717 102.504 11.8967 102.504 6.51881C102.504 1.14429 98.1289 -3.23071 92.7544 -3.23071Z" fill="#6132EC"/>
</g>
<path d="M110.255 22.713L113.52 10.5337C113.557 10.4125 113.574 10.2847 113.574 10.1433C113.574 9.43658 113.069 8.82408 112.379 8.67937C111.615 8.5212 110.814 9.05293 110.592 9.88082L108.276 17.0289C108.29 17.0491 108.307 17.0726 108.324 17.0962C108.717 17.7861 108.825 18.5972 108.623 19.3678C108.411 20.1452 107.916 20.7948 107.22 21.1885L102.919 23.6722C102.562 23.8808 102.104 23.7563 101.902 23.3962C101.69 23.0428 101.812 22.5851 102.172 22.3765L106.469 19.8928C106.823 19.6875 107.068 19.3678 107.176 18.9875C107.27 18.5972 107.22 18.19 107.025 17.8467C106.611 17.1265 105.688 16.8774 104.968 17.2981L98.3486 21.175C96.75 22.1207 95.7505 23.8539 95.7505 25.7082V34.2698H103.252V31.1198C103.252 30.0529 103.71 29.0332 104.504 28.313L109.582 23.8068C109.912 23.514 110.144 23.1303 110.255 22.713Z" fill="#6132EC"/>
<path d="M107.063 15.9082L109.156 9.45337C109.513 8.09712 110.738 7.16491 112.074 7.15145C112.074 7.15145 112.074 7.15145 112.074 7.14472C112.074 6.43799 111.569 5.82212 110.879 5.68078C110.119 5.5226 109.314 6.05433 109.096 6.88222L106.057 15.6255C106.403 15.6625 106.747 15.75 107.063 15.9082Z" fill="#6132EC"/>
<mask id="mask1_118_1307" style="mask-type:luminance" maskUnits="userSpaceOnUse" x="94" y="35" width="11" height="4">
<path d="M94.7207 35.663H104.198V38.7693H94.7207V35.663Z" fill="white"/>
</mask>
<g mask="url(#mask1_118_1307)">
<path d="M95 38.7692H104.002V35.7707H95V38.7692Z" fill="#6132EC"/>
</g>
<mask id="mask2_118_1307" style="mask-type:luminance" maskUnits="userSpaceOnUse" x="71" y="8" width="20" height="27">
<path d="M71.7158 8.09381H90.4139V34.8015H71.7158V8.09381Z" fill="white"/>
</mask>
<g mask="url(#mask2_118_1307)">
<path d="M75.2461 22.7063C75.3571 23.1303 75.5927 23.514 75.9225 23.8068L80.9941 28.313C81.7951 29.0332 82.2528 30.0529 82.2528 31.1198V34.2698H89.7509V25.7082C89.7509 23.8539 88.7547 22.1207 87.1561 21.175L80.5263 17.2914C80.1797 17.0962 79.7759 17.0424 79.3956 17.1467C79.0018 17.2443 78.6821 17.5 78.4802 17.8467C78.0662 18.5568 78.3153 19.4823 79.0355 19.8928L83.3331 22.3765C83.6898 22.5851 83.8143 23.0428 83.6023 23.3962C83.4004 23.7563 82.9393 23.8808 82.5826 23.6722L78.285 21.1885C76.8513 20.3674 76.3566 18.5299 77.1811 17.0962C77.198 17.0726 77.2182 17.0491 77.2283 17.0289L74.9263 9.91783C74.6908 9.06302 73.8898 8.5212 73.1191 8.67937C72.436 8.82408 71.9312 9.43658 71.9312 10.1433C71.9312 10.2847 71.948 10.4125 71.985 10.5337L75.2461 22.7063Z" fill="#6132EC"/>
</g>
<mask id="mask3_118_1307" style="mask-type:luminance" maskUnits="userSpaceOnUse" x="80" y="35" width="12" height="4">
<path d="M80.9375 35.663H91.276V38.7693H80.9375V35.663Z" fill="white"/>
</mask>
<g mask="url(#mask3_118_1307)">
<path d="M90.501 35.7707H81.502V38.7692H90.501V35.7707Z" fill="#6132EC"/>
</g>
<path d="M74.6172 5.68075C73.9341 5.8221 73.4326 6.43797 73.4326 7.1447C73.4326 7.15143 73.4326 7.15143 73.4326 7.15816C74.7687 7.17499 75.9903 8.10383 76.3639 9.49037L78.4403 15.9082C78.622 15.8207 78.8105 15.7466 79.0023 15.6928C79.147 15.6558 79.2951 15.6389 79.4499 15.6255L76.4312 6.93268C76.1922 6.05431 75.3913 5.52258 74.6172 5.68075Z" fill="#6132EC"/>
<path d="M10.9173 16.8674V18.9135H2.51731V25.4289H9.32884V27.4751H2.51731V36.1847H0V16.8674H10.9173Z" fill="black"/>
<path d="M19.2849 16.8672V36.1845H16.7676V16.8672H19.2849Z" fill="black"/>
<path d="M41.5669 36.1847H39.0496L28.8996 20.7982V36.1847H26.3823V16.8405H28.8996L39.0496 32.2001V16.8405H41.5669V36.1847Z" fill="black"/>
<path d="M69.0657 17.4462V36.6558H66.5619V27.9462H56.7753V36.6558H54.2715V17.4462H56.7753V25.8731H66.5619V17.4462H69.0657Z" fill="black"/>
<path d="M127.849 26.7616C128.549 26.8692 129.185 27.1519 129.76 27.6096C130.343 28.0673 130.804 28.6394 131.147 29.3192C131.487 30.0024 131.658 30.7293 131.658 31.5C131.658 32.4793 131.406 33.3577 130.905 34.1385C130.41 34.9192 129.693 35.5351 128.751 35.9827C127.808 36.4337 126.691 36.6558 125.399 36.6558H118.237V17.4462H125.13C126.429 17.4462 127.539 17.6616 128.455 18.0923C129.377 18.5231 130.07 19.1087 130.528 19.8423C130.985 20.5793 131.214 21.4039 131.214 22.3192C131.214 23.4601 130.905 24.4024 130.285 25.1462C129.673 25.8933 128.862 26.4317 127.849 26.7616ZM120.741 25.7385H124.955C126.129 25.7385 127.041 25.4659 127.687 24.9173C128.333 24.362 128.657 23.5981 128.657 22.6289C128.657 21.6529 128.333 20.889 127.687 20.3404C127.041 19.7851 126.112 19.5058 124.901 19.5058H120.741V25.7385ZM125.183 34.5827C126.429 34.5827 127.405 34.2933 128.105 33.7077C128.805 33.1154 129.155 32.301 129.155 31.2577C129.155 30.1909 128.784 29.3529 128.051 28.7404C127.314 28.1212 126.331 27.8116 125.103 27.8116H120.741V34.5827H125.183Z" fill="black"/>
</svg>
